<svg width="16" height="17" viewBox="0 0 16 17" fill="none" xmlns="http://www.w3.org/2000/svg">
    <path d="M8 0.5C6.41775 0.5 4.87103 0.969192 3.55544 1.84824C2.23985 2.72729 1.21447 3.97672 0.608967 5.43853C0.00346628 6.90034 -0.15496 8.50887 0.153721 10.0607C0.462403 11.6126 1.22433 13.038 2.34315 14.1569C3.46197 15.2757 4.88743 16.0376 6.43928 16.3463C7.99113 16.655 9.59966 16.4965 11.0615 15.891C12.5233 15.2855 13.7727 14.2602 14.6518 12.9446C15.5308 11.629 16 10.0822 16 8.5C15.9975 6.37902 15.1539 4.34561 13.6541 2.84585C12.1544 1.34609 10.121 0.502451 8 0.5ZM7.99992 4.19231C8.18249 4.19231 8.36096 4.24644 8.51276 4.34787C8.66456 4.4493 8.78287 4.59347 8.85274 4.76214C8.9226 4.93081 8.94088 5.11641 8.90526 5.29547C8.86965 5.47453 8.78173 5.639 8.65264 5.7681C8.52354 5.89719 8.35907 5.98511 8.18001 6.02072C8.00095 6.05634 7.81535 6.03806 7.64668 5.96819C7.47801 5.89833 7.33384 5.78002 7.23241 5.62822C7.13099 5.47642 7.07685 5.29795 7.07685 5.11538C7.07685 4.99416 7.10072 4.87413 7.14711 4.76214C7.1935 4.65014 7.2615 4.54838 7.34721 4.46267C7.43293 4.37695 7.53469 4.30896 7.64668 4.26257C7.75867 4.21618 7.8787 4.19231 7.99992 4.19231ZM8.61539 12.8077H8C7.91918 12.8077 7.83913 12.7918 7.76445 12.7609C7.68977 12.73 7.62191 12.6847 7.56476 12.6276C7.5076 12.5704 7.46228 12.5025 7.43137 12.4279C7.40046 12.3532 7.38457 12.2731 7.38462 12.1923V8.5C7.22141 8.5 7.06488 8.43516 6.94947 8.31976C6.83407 8.20435 6.76923 8.04782 6.76923 7.88461C6.76923 7.7214 6.83407 7.56488 6.94947 7.44947C7.06488 7.33406 7.22141 7.26923 7.38462 7.26923H8C8.08083 7.26918 8.16087 7.28507 8.23555 7.31598C8.31024 7.34689 8.3781 7.39221 8.43525 7.44937C8.4924 7.50652 8.53773 7.57438 8.56864 7.64906C8.59955 7.72374 8.61543 7.80379 8.61539 7.88461V11.5769C8.7786 11.5769 8.93512 11.6418 9.05053 11.7572C9.16594 11.8726 9.23077 12.0291 9.23077 12.1923C9.23077 12.3555 9.16594 12.512 9.05053 12.6274C8.93512 12.7429 8.7786 12.8077 8.61539 12.8077Z" fill="#4694AF"/>
</svg>
